HIERARCHY
ROOT Hips
{
  OFFSET -331.093 83.8371 -317.828
  CHANNELS 6 Xposition Yposition Zposition Zrotation Xrotation Yrotation
  JOINT LeftUpLeg
  {
    OFFSET 8.64259 1.95398 -2.38835
    CHANNELS 3 Zrotation Xrotation Yrotation
    JOINT LeftLeg
    {
      OFFSET 43.7702 0 0
      CHANNELS 3 Zrotation Xrotation Yrotation
      JOINT LeftFoot
      {
        OFFSET 40.6238 0 0
        CHANNELS 3 Zrotation Xrotation Yrotation
        JOINT LeftToeBase
        {
          OFFSET 12.7242 0 0
          CHANNELS 3 Zrotation Xrotation Yrotation
          End Site
          {
            OFFSET 0 0 0
          }
        }
      }
    }
  }
  JOINT RightUpLeg
  {
    OFFSET -8.2249 1.95398 -2.59336
    CHANNELS 3 Zrotation Xrotation Yrotation
    JOINT RightLeg
    {
      OFFSET 43.5653 0 0
      CHANNELS 3 Zrotation Xrotation Yrotation
      JOINT RightFoot
      {
        OFFSET 40.6238 0 0
        CHANNELS 3 Zrotation Xrotation Yrotation
        JOINT RightToeBase
        {
          OFFSET 12.7242 0 0
          CHANNELS 3 Zrotation Xrotation Yrotation
          End Site
          {
            OFFSET 0 0 0
          }
        }
      }
    }
  }
  JOINT Spine
  {
    OFFSET 0.165834 0.87714 6.61349
    CHANNELS 3 Zrotation Xrotation Yrotation
    JOINT Spine1
    {
      OFFSET 7.38963 1.71661e-005 0
      CHANNELS 3 Zrotation Xrotation Yrotation
      JOINT Spine2
      {
        OFFSET 11.9445 1.14441e-005 0
        CHANNELS 3 Zrotation Xrotation Yrotation
        JOINT Spine3
        {
          OFFSET 14.7254 4.19617e-005 0
          CHANNELS 3 Zrotation Xrotation Yrotation
          JOINT Spine4
          {
            OFFSET 10.9679 0 0
            CHANNELS 3 Zrotation Xrotation Yrotation
            JOINT RightShoulder
            {
              OFFSET 2.46616 -1.6653 3.69651
              CHANNELS 3 Zrotation Xrotation Yrotation
              JOINT RightArm
              {
                OFFSET 13.0012 0 0
                CHANNELS 3 Zrotation Xrotation Yrotation
                JOINT RightForeArm
                {
                  OFFSET 28.7848 1.62311e-005 0
                  CHANNELS 3 Zrotation Xrotation Yrotation
                  JOINT RightHand
                  {
                    OFFSET 26.5688 1.62095e-005 0
                    CHANNELS 3 Zrotation Xrotation Yrotation
                    End Site
                    {
                      OFFSET 0 0 0
                    }
                  }
                }
              }
            }
            JOINT LeftShoulder
            {
              OFFSET 2.38034 -1.29275 -3.7523
              CHANNELS 3 Zrotation Xrotation Yrotation
              JOINT LeftArm
              {
                OFFSET 16.3182 6.07031e-005 0
                CHANNELS 3 Zrotation Xrotation Yrotation
                JOINT LeftForeArm
                {
                  OFFSET 27.0901 0 0
                  CHANNELS 3 Zrotation Xrotation Yrotation
                  JOINT LeftHand
                  {
                    OFFSET 24.5451 1.51738e-005 0
                    CHANNELS 3 Zrotation Xrotation Yrotation
                    End Site
                    {
                      OFFSET 0 0 0
                    }
                  }
                }
              }
            }
            JOINT Neck
            {
              OFFSET 5.0226 -0.0266342 0
              CHANNELS 3 Zrotation Xrotation Yrotation
              JOINT Head
              {
                OFFSET 6.69364 2.86102e-005 0
                CHANNELS 3 Zrotation Xrotation Yrotation
                End Site
                {
                  OFFSET 0 0 0
                }
              }
            }
          }
        }
      }
    }
  }
}
MOTION
Frames:	7
Frame Time:	0.0416667
-66.1517 49.2204 0.00531435 97.7323 -72.1719 106.605 169.203 42.3368 96.8051 -133.754 31.76 2.92962 46.9088 -8.06111 1.70433 46.9695 63.2327 59.5381 99.0886 70.9145 154.875 -122.266 15.1582 -5.23713 82.6875 -11.5969 -7.12664 47.1584 -1.20251 -3.06027 0.554209 12.5646 -92.4203 1.72375 0.178305 -4.71446 -9.95573 -0.0291255 -4.71774 -32.4282 1.58555 -4.44398 -12.4155 1.58555 -4.44398 92.0114 -28.1011 -103.051 6.3197 -7.22037 -24.9565 -7.11061 -11.7664 -41.3371 -21.5747 -2.19838 6.92134 -97.0007 -42.9102 66.4193 -29.1047 12.8165 21.945 4.14901 7.769 -40.2086 17.7771 1.01135 1.82591 -3.28068 -9.28393 -0.970605 30.1468 -8.87687 0.132683 
-66.1543 49.2571 -0.0341796 99.5167 -72.0542 108.503 169.352 41.9033 96.826 -133.878 31.8009 2.91692 47.4848 -7.35162 2.7781 40.4098 60.5781 66.9108 100.846 70.6849 153.112 -122.227 14.9173 -5.2144 82.463 -11.5234 -7.10551 46.4353 -1.29291 -3.50364 0.581473 12.6262 -92.4454 1.60119 0.225536 -4.76087 -10.0785 0.0160392 -4.76618 -32.55 1.64452 -4.47412 -12.5374 1.64453 -4.47411 92.1897 -27.8297 -102.78 6.80719 -7.1796 -24.9153 -7.39424 -11.7699 -41.514 -21.367 -2.05714 6.24097 -97.0908 -42.8977 66.2736 -29.4204 12.9267 22.0009 3.4784 6.89713 -40.1242 19.2289 0.989255 1.28328 -3.18011 -9.02451 -0.744295 30.4112 -8.67926 0.022137 
-66.1659 49.3321 -0.0411793 100.327 -71.8715 109.693 169.311 41.4951 97.1841 -133.641 31.4896 2.9237 46.296 -7.75516 3.62836 41.5393 61.0479 65.5976 101.763 70.2347 152.048 -122.135 14.5216 -5.1882 82.0285 -11.2982 -7.04771 47.8366 -1.52218 -4.0442 0.579655 12.6561 -92.4948 1.53989 0.204356 -4.85697 -10.1401 -0.00934607 -4.86125 -32.6089 1.65311 -4.57218 -12.5962 1.6531 -4.57219 92.0688 -27.7448 -103.057 6.82745 -7.14073 -24.6682 -7.57449 -11.8383 -42.0234 -21.4678 -2.11596 6.52079 -97.0297 -42.8501 66.3513 -29.5941 12.7277 22.0536 3.52125 6.94857 -40.1005 19.0326 1.04873 1.65239 -3.33476 -9.08312 -0.500801 30.4515 -8.85246 -0.271887 
-66.1885 49.4675 -0.0250965 102.141 -71.6749 112.056 168.616 40.7644 98.0836 -133.634 31.6774 2.88759 46.6862 -7.62454 3.32352 39.4066 60.9183 68.5561 103.8 69.3194 149.968 -121.831 14.5183 -5.1729 81.9681 -11.2313 -7.00513 47.7585 -1.56761 -4.21442 0.626713 12.7225 -92.5553 1.40756 0.278 -4.97108 -10.2729 0.0592297 -4.97848 -32.7391 1.75754 -4.65902 -12.7265 1.75755 -4.65904 92.0523 -27.8366 -103.059 6.97709 -7.04604 -24.6635 -7.57847 -11.8467 -42.0106 -21.317 -2.0864 6.43813 -96.9527 -42.7046 66.4176 -29.6236 12.9273 22.1548 3.41794 6.79442 -40.1973 19.0186 1.0353 1.58578 -3.47294 -9.01133 -0.703722 30.5306 -8.72025 -0.131437 
-66.1834 49.6335 -0.0649832 104.175 -71.24 114.716 167.869 39.7306 98.8946 -133.542 31.8817 2.82251 46.6227 -7.45588 4.05334 40.8463 60.025 65.9471 105.914 68.342 147.651 -121.567 14.4147 -5.15569 82.034 -11.2319 -6.99895 48.3774 -1.53793 -3.99287 0.644975 12.8079 -92.6537 1.23481 0.280896 -5.16058 -10.4464 0.0538005 -5.16793 -32.9072 1.81706 -4.83906 -12.8945 1.81706 -4.83905 92.0138 -27.7035 -103.184 7.07369 -6.92361 -24.5157 -7.56897 -11.8301 -42.0717 -21.3835 -2.07476 6.333 -97.0646 -42.8281 66.2885 -29.5311 12.9145 22.2088 3.27152 6.59265 -40.1552 19.1307 1.01098 1.42628 -3.52392 -8.98786 -0.646887 30.4817 -8.66497 0.0110621 
-66.2128 49.8259 -0.0660849 106.465 -70.6048 117.769 166.784 38.523 99.9951 -133.454 32.0948 2.74294 46.9093 -7.38919 3.72712 40.0602 60.0289 67.0804 108.455 66.7954 144.871 -121.07 15.1774 -5.15561 83.3655 -11.7863 -7.08655 45.4704 -1.00469 -2.62978 0.680486 12.9122 -92.7527 1.0252 0.319045 -5.34938 -10.6567 0.0836425 -5.35823 -33.1123 1.90999 -5.00786 -13.0996 1.90999 -5.00786 91.964 -27.7929 -103.255 7.02388 -6.99865 -24.3926 -7.45133 -11.5417 -42.2315 -21.3354 -2.10447 6.52323 -96.9708 -42.6795 66.3797 -29.5311 12.8794 22.1733 3.37118 6.77386 -40.0255 18.9791 0.943863 1.11323 -3.47513 -8.93266 -0.78774 30.5453 -8.57411 0.0772522 
-66.2138 50.0765 -0.0352866 109.119 -70.1218 121.379 165.868 37.0467 101.293 -133.229 32.4061 2.68825 46.599 -7.64742 3.65591 41.5368 62.6793 66.5997 111.284 64.9977 141.999 -120.457 15.5315 -5.11821 84.3899 -12.201 -7.11179 44.7333 -0.719007 -1.65871 0.735919 13.0525 -92.8589 0.744201 0.396338 -5.54906 -10.9386 0.152108 -5.56109 -33.3887 2.04352 -5.17533 -13.3761 2.04352 -5.17533 91.9981 -27.7796 -103.19 7.08704 -6.84144 -24.6736 -7.5491 -11.6264 -42.1869 -21.2299 -2.05642 6.30884 -96.6331 -42.4471 66.8247 -29.7791 13.0422 22.0177 3.26781 6.63899 -40.0074 19.0932 0.931934 1.02059 -2.87541 -8.89754 -0.904567 30.0665 -8.53778 0.000505401 
